<svg id="Foreground" xmlns="http://www.w3.org/2000/svg" viewBox="0 0 174.51 45.8"><defs><style>.cls-1,.cls-2{fill:#030408;}.cls-1{fill-rule:evenodd;}</style></defs><title>FMOD Logo Black - White Background</title><path class="cls-1" d="M375,438.88a5,5,0,1,0,5-4.91A4.93,4.93,0,0,0,375,438.88Zm.9,0a4.07,4.07,0,1,1,4.08,4.24A4.06,4.06,0,0,1,375.87,438.88Zm2.05,2.78h.9v-2.48h1l1.57,2.48h1l-1.65-2.55a1.48,1.48,0,0,0,1.52-1.57c0-1.11-.65-1.65-2-1.65h-2.23Zm.9-5H380c.61,0,1.27.12,1.27.88s-.72.95-1.52.95h-.94Z" transform="translate(-210.38 -398.05)"/><circle class="cls-2" cx="25.64" cy="20.21" r="5.12"/><path class="cls-2" d="M364.41,431a6.94,6.94,0,0,0,.49-.9,4.88,4.88,0,0,1,9.21,2.24,4.78,4.78,0,0,1-.4,1.91l-.14.29a16.5,16.5,0,0,1-14.8,9.28,16.19,16.19,0,0,1,0-32.38h.71a16.33,16.33,0,0,1,7.38,2.12V398h9.62v21.9a5.4,5.4,0,0,1-5.18,5.25,11.58,11.58,0,0,1-7.78-2.72,6.55,6.55,0,0,0-4-1.39h-.71a6.57,6.57,0,1,0,5.64,9.94Z" transform="translate(-210.38 -398.05)"/><path class="cls-2" d="M307.64,427.65a16.19,16.19,0,1,1,16.19,16.19A16.19,16.19,0,0,1,307.64,427.65Zm22.76,0a6.57,6.57,0,1,0-6.57,6.57A6.57,6.57,0,0,0,330.4,427.65Z" transform="translate(-210.38 -398.05)"/><path class="cls-2" d="M288.07,421.06a1.82,1.82,0,0,0-1.73,1.26l-3.87,13.35a11.38,11.38,0,0,1-21.84,0l-3.87-13.35a1.83,1.83,0,0,0-3.47,0l-3.87,13.35a11.43,11.43,0,0,1-11,8.17h-2.69v-9.6h2.72a1.8,1.8,0,0,0,1.71-1.26l3.87-13.35a11.41,11.41,0,0,1,21.89,0L269.83,433a1.79,1.79,0,0,0,3.43,0l3.87-13.35a11.42,11.42,0,0,1,21.89,0L302.89,433a1.79,1.79,0,0,0,1.71,1.26h2.72v9.6h-2.68a11.43,11.43,0,0,1-11-8.17l-3.87-13.35A1.83,1.83,0,0,0,288.07,421.06Z" transform="translate(-210.38 -398.05)"/><path class="cls-2" d="M234.77,407.67a6.57,6.57,0,0,0-6.57,6.57v29.61h-9.62V423.38h-8.2v-9.59h8.2A16.19,16.19,0,0,1,234.77,398h9.61v9.62Z" transform="translate(-210.38 -398.05)"/></svg>